User Type,Username,Date,Text
,kenasona,2012-04-18T08:50Z,Quality anyone?
,dimekoza,2012-04-18T19:06Z,"aspect ratio anyone? is it in 16:9? I don't know why nobody rips the movies in 16:9 but i this stupid  21:9 that has the stupid black lines , does anyone have a 21:9 tv?"
,sonozx,2012-04-19T12:24Z,"D:HD Movie'sUnderworld.Awakening.2012.720p.BRRiP.XViD-PSiGpsig-ua.2012.720p.brrip.xvid.avi
  General
    Complete name : D:HD Movie'sUnderworld.Awakening.2012.720p.BRRiP.XViD-PSiGpsig-ua.2012.720p.brrip.xvid.avi
    Format : AVI
    Format/Info : Audio Video Interleave
    Format profile : OpenDML
    File size : 2.46 GiB
    Duration : 1h 28mn
    Overall bit rate : 3 983 Kbps
    Writing application : VirtualDubMod 1.5.10.2 (build 2540/release)
    Writing library : VirtualDubMod build 2540/release
  Video #0
    ID : 0
    Format : MPEG-4 Visual
    Format profile : Advanced Simple@L5
    Format settings, BVOP : 2
    Format settings, QPel : No
    Format settings, GMC : No warppoints
    Format settings, Matrix : Default (MPEG)
    Codec ID : XVID
    Codec ID/Hint : XviD
    Duration : 1h 28mn
    Bit rate : 3 332 Kbps
    Width : 1 280 pixels
    Height : 528 pixels
    Display aspect ratio : 2.40:1
    Frame rate : 23.976 fps
    Color space : YUV
    Chroma subsampling : 4:2:0
    Bit depth : 8 bits
    Scan type : Progressive
    Compression mode : Lossy
    Bits/(Pixel*Frame) : 0.206
    Stream size : 2.06 GiB (84%)
    Writing library : XviD 1.2.1 (UTC 2008-12-04)
  Audio #1
    ID : 1
    Format : AC-3
    Format/Info : Audio Coding 3
    Mode extension : CM (complete main)
    Codec ID : 2000
    Duration : 1h 28mn
    Bit rate mode : Constant
    Bit rate : 640 Kbps
    Channel(s) : 6 channels
    Channel positions : Front: L C R, Side: L R, LFE
    Sampling rate : 48.0 KHz
    Bit depth : 16 bits
    Compression mode : Lossy
    Stream size : 405 MiB (16%)
    Alignment : Split accross interleaves
    Interleave, duration : 42 ms (1.00 video frame)
    Interleave, preload duration : 500 ms"
,xxela,2012-04-21T08:39Z,"Thanks .BONE. for the god rip !!
V - 9.5
A - 10"
